<svg width="139" height="114" viewBox="0 0 139 114" fill="none" xmlns="http://www.w3.org/2000/svg">
<path d="M3.86738 6.76367H6.82051V7.3584H3.86738V10.3389H3.27266V7.3584H0.326367V6.76367H3.27266V3.77637H3.86738V6.76367Z" fill="#9C4DF4"/>
<path d="M18.4674 6.76367H21.4205V7.3584H18.4674V10.3389H17.8726V7.3584H14.9263V6.76367H17.8726V3.77637H18.4674V6.76367Z" fill="#9C4DF4"/>
<path d="M33.0673 6.76367H36.0205V7.3584H33.0673V10.3389H32.4726V7.3584H29.5263V6.76367H32.4726V3.77637H33.0673V6.76367Z" fill="#9C4DF4"/>
<path d="M47.6673 6.76367H50.6204V7.3584H47.6673V10.3389H47.0726V7.3584H44.1263V6.76367H47.0726V3.77637H47.6673V6.76367Z" fill="#9C4DF4"/>
<path d="M62.2673 6.76367H65.2204V7.3584H62.2673V10.3389H61.6726V7.3584H58.7263V6.76367H61.6726V3.77637H62.2673V6.76367Z" fill="#9C4DF4"/>
<path d="M76.8673 6.76367H79.8204V7.3584H76.8673V10.3389H76.2725V7.3584H73.3262V6.76367H76.2725V3.77637H76.8673V6.76367Z" fill="#9C4DF4"/>
<path d="M91.4672 6.76367H94.4204V7.3584H91.4672V10.3389H90.8725V7.3584H87.9262V6.76367H90.8725V3.77637H91.4672V6.76367Z" fill="#9C4DF4"/>
<path d="M106.067 6.76367H109.02V7.3584H106.067V10.3389H105.472V7.3584H102.526V6.76367H105.472V3.77637H106.067V6.76367Z" fill="#9C4DF4"/>
<path d="M120.667 6.76367H123.62V7.3584H120.667V10.3389H120.072V7.3584H117.126V6.76367H120.072V3.77637H120.667V6.76367Z" fill="#9C4DF4"/>
<path d="M135.267 6.76367H138.22V7.3584H135.267V10.3389H134.672V7.3584H131.726V6.76367H134.672V3.77637H135.267V6.76367Z" fill="#9C4DF4"/>
<path d="M3.86738 23.9189H6.82051V24.5137H3.86738V27.4941H3.27266V24.5137H0.326367V23.9189H3.27266V20.9316H3.86738V23.9189Z" fill="#9C4DF4"/>
<path d="M18.4674 23.9189H21.4205V24.5137H18.4674V27.4941H17.8726V24.5137H14.9263V23.9189H17.8726V20.9316H18.4674V23.9189Z" fill="#9C4DF4"/>
<path d="M33.0673 23.9189H36.0205V24.5137H33.0673V27.4941H32.4726V24.5137H29.5263V23.9189H32.4726V20.9316H33.0673V23.9189Z" fill="#9C4DF4"/>
<path d="M47.6673 23.9189H50.6204V24.5137H47.6673V27.4941H47.0726V24.5137H44.1263V23.9189H47.0726V20.9316H47.6673V23.9189Z" fill="#9C4DF4"/>
<path d="M62.2673 23.9189H65.2204V24.5137H62.2673V27.4941H61.6726V24.5137H58.7263V23.9189H61.6726V20.9316H62.2673V23.9189Z" fill="#9C4DF4"/>
<path d="M76.8673 23.9189H79.8204V24.5137H76.8673V27.4941H76.2725V24.5137H73.3262V23.9189H76.2725V20.9316H76.8673V23.9189Z" fill="#9C4DF4"/>
<path d="M91.4672 23.9189H94.4204V24.5137H91.4672V27.4941H90.8725V24.5137H87.9262V23.9189H90.8725V20.9316H91.4672V23.9189Z" fill="#9C4DF4"/>
<path d="M106.067 23.9189H109.02V24.5137H106.067V27.4941H105.472V24.5137H102.526V23.9189H105.472V20.9316H106.067V23.9189Z" fill="#9C4DF4"/>
<path d="M120.667 23.9189H123.62V24.5137H120.667V27.4941H120.072V24.5137H117.126V23.9189H120.072V20.9316H120.667V23.9189Z" fill="#9C4DF4"/>
<path d="M135.267 23.9189H138.22V24.5137H135.267V27.4941H134.672V24.5137H131.726V23.9189H134.672V20.9316H135.267V23.9189Z" fill="#9C4DF4"/>
<path d="M3.86738 41.0742H6.82051V41.6689H3.86738V44.6494H3.27266V41.6689H0.326367V41.0742H3.27266V38.0869H3.86738V41.0742Z" fill="#9C4DF4"/>
<path d="M18.4674 41.0742H21.4205V41.6689H18.4674V44.6494H17.8726V41.6689H14.9263V41.0742H17.8726V38.0869H18.4674V41.0742Z" fill="#9C4DF4"/>
<path d="M33.0673 41.0742H36.0205V41.6689H33.0673V44.6494H32.4726V41.6689H29.5263V41.0742H32.4726V38.0869H33.0673V41.0742Z" fill="#9C4DF4"/>
<path d="M47.6673 41.0742H50.6204V41.6689H47.6673V44.6494H47.0726V41.6689H44.1263V41.0742H47.0726V38.0869H47.6673V41.0742Z" fill="#9C4DF4"/>
<path d="M62.2673 41.0742H65.2204V41.6689H62.2673V44.6494H61.6726V41.6689H58.7263V41.0742H61.6726V38.0869H62.2673V41.0742Z" fill="#9C4DF4"/>
<path d="M76.8673 41.0742H79.8204V41.6689H76.8673V44.6494H76.2725V41.6689H73.3262V41.0742H76.2725V38.0869H76.8673V41.0742Z" fill="#9C4DF4"/>
<path d="M91.4672 41.0742H94.4204V41.6689H91.4672V44.6494H90.8725V41.6689H87.9262V41.0742H90.8725V38.0869H91.4672V41.0742Z" fill="#9C4DF4"/>
<path d="M106.067 41.0742H109.02V41.6689H106.067V44.6494H105.472V41.6689H102.526V41.0742H105.472V38.0869H106.067V41.0742Z" fill="#9C4DF4"/>
<path d="M120.667 41.0742H123.62V41.6689H120.667V44.6494H120.072V41.6689H117.126V41.0742H120.072V38.0869H120.667V41.0742Z" fill="#9C4DF4"/>
<path d="M135.267 41.0742H138.22V41.6689H135.267V44.6494H134.672V41.6689H131.726V41.0742H134.672V38.0869H135.267V41.0742Z" fill="#9C4DF4"/>
<path d="M3.86738 58.2295H6.82051V58.8242H3.86738V61.8047H3.27266V58.8242H0.326367V58.2295H3.27266V55.2422H3.86738V58.2295Z" fill="#9C4DF4"/>
<path d="M18.4674 58.2295H21.4205V58.8242H18.4674V61.8047H17.8726V58.8242H14.9263V58.2295H17.8726V55.2422H18.4674V58.2295Z" fill="#9C4DF4"/>
<path d="M33.0673 58.2295H36.0205V58.8242H33.0673V61.8047H32.4726V58.8242H29.5263V58.2295H32.4726V55.2422H33.0673V58.2295Z" fill="#9C4DF4"/>
<path d="M47.6673 58.2295H50.6204V58.8242H47.6673V61.8047H47.0726V58.8242H44.1263V58.2295H47.0726V55.2422H47.6673V58.2295Z" fill="#9C4DF4"/>
<path d="M62.2673 58.2295H65.2204V58.8242H62.2673V61.8047H61.6726V58.8242H58.7263V58.2295H61.6726V55.2422H62.2673V58.2295Z" fill="#9C4DF4"/>
<path d="M76.8673 58.2295H79.8204V58.8242H76.8673V61.8047H76.2725V58.8242H73.3262V58.2295H76.2725V55.2422H76.8673V58.2295Z" fill="#9C4DF4"/>
<path d="M91.4672 58.2295H94.4204V58.8242H91.4672V61.8047H90.8725V58.8242H87.9262V58.2295H90.8725V55.2422H91.4672V58.2295Z" fill="#9C4DF4"/>
<path d="M106.067 58.2295H109.02V58.8242H106.067V61.8047H105.472V58.8242H102.526V58.2295H105.472V55.2422H106.067V58.2295Z" fill="#9C4DF4"/>
<path d="M120.667 58.2295H123.62V58.8242H120.667V61.8047H120.072V58.8242H117.126V58.2295H120.072V55.2422H120.667V58.2295Z" fill="#9C4DF4"/>
<path d="M135.267 58.2295H138.22V58.8242H135.267V61.8047H134.672V58.8242H131.726V58.2295H134.672V55.2422H135.267V58.2295Z" fill="#9C4DF4"/>
<path d="M3.86738 75.3848H6.82051V75.9795H3.86738V78.96H3.27266V75.9795H0.326367V75.3848H3.27266V72.3975H3.86738V75.3848Z" fill="#9C4DF4"/>
<path d="M18.4674 75.3848H21.4205V75.9795H18.4674V78.96H17.8726V75.9795H14.9263V75.3848H17.8726V72.3975H18.4674V75.3848Z" fill="#9C4DF4"/>
<path d="M33.0673 75.3848H36.0205V75.9795H33.0673V78.96H32.4726V75.9795H29.5263V75.3848H32.4726V72.3975H33.0673V75.3848Z" fill="#9C4DF4"/>
<path d="M47.6673 75.3848H50.6204V75.9795H47.6673V78.96H47.0726V75.9795H44.1263V75.3848H47.0726V72.3975H47.6673V75.3848Z" fill="#9C4DF4"/>
<path d="M62.2673 75.3848H65.2204V75.9795H62.2673V78.96H61.6726V75.9795H58.7263V75.3848H61.6726V72.3975H62.2673V75.3848Z" fill="#9C4DF4"/>
<path d="M76.8673 75.3848H79.8204V75.9795H76.8673V78.96H76.2725V75.9795H73.3262V75.3848H76.2725V72.3975H76.8673V75.3848Z" fill="#9C4DF4"/>
<path d="M91.4672 75.3848H94.4204V75.9795H91.4672V78.96H90.8725V75.9795H87.9262V75.3848H90.8725V72.3975H91.4672V75.3848Z" fill="#9C4DF4"/>
<path d="M106.067 75.3848H109.02V75.9795H106.067V78.96H105.472V75.9795H102.526V75.3848H105.472V72.3975H106.067V75.3848Z" fill="#9C4DF4"/>
<path d="M120.667 75.3848H123.62V75.9795H120.667V78.96H120.072V75.9795H117.126V75.3848H120.072V72.3975H120.667V75.3848Z" fill="#9C4DF4"/>
<path d="M135.267 75.3848H138.22V75.9795H135.267V78.96H134.672V75.9795H131.726V75.3848H134.672V72.3975H135.267V75.3848Z" fill="#9C4DF4"/>
<path d="M3.86738 92.54H6.82051V93.1348H3.86738V96.1152H3.27266V93.1348H0.326367V92.54H3.27266V89.5527H3.86738V92.54Z" fill="#9C4DF4"/>
<path d="M18.4674 92.54H21.4205V93.1348H18.4674V96.1152H17.8726V93.1348H14.9263V92.54H17.8726V89.5527H18.4674V92.54Z" fill="#9C4DF4"/>
<path d="M33.0673 92.54H36.0205V93.1348H33.0673V96.1152H32.4726V93.1348H29.5263V92.54H32.4726V89.5527H33.0673V92.54Z" fill="#9C4DF4"/>
<path d="M47.6673 92.54H50.6204V93.1348H47.6673V96.1152H47.0726V93.1348H44.1263V92.54H47.0726V89.5527H47.6673V92.54Z" fill="#9C4DF4"/>
<path d="M62.2673 92.54H65.2204V93.1348H62.2673V96.1152H61.6726V93.1348H58.7263V92.54H61.6726V89.5527H62.2673V92.54Z" fill="#9C4DF4"/>
<path d="M76.8673 92.54H79.8204V93.1348H76.8673V96.1152H76.2725V93.1348H73.3262V92.54H76.2725V89.5527H76.8673V92.54Z" fill="#9C4DF4"/>
<path d="M91.4672 92.54H94.4204V93.1348H91.4672V96.1152H90.8725V93.1348H87.9262V92.54H90.8725V89.5527H91.4672V92.54Z" fill="#9C4DF4"/>
<path d="M106.067 92.54H109.02V93.1348H106.067V96.1152H105.472V93.1348H102.526V92.54H105.472V89.5527H106.067V92.54Z" fill="#9C4DF4"/>
<path d="M120.667 92.54H123.62V93.1348H120.667V96.1152H120.072V93.1348H117.126V92.54H120.072V89.5527H120.667V92.54Z" fill="#9C4DF4"/>
<path d="M135.267 92.54H138.22V93.1348H135.267V96.1152H134.672V93.1348H131.726V92.54H134.672V89.5527H135.267V92.54Z" fill="#9C4DF4"/>
<path d="M3.86738 109.695H6.82051V110.29H3.86738V113.271H3.27266V110.29H0.326367V109.695H3.27266V106.708H3.86738V109.695Z" fill="#9C4DF4"/>
<path d="M18.4674 109.695H21.4205V110.29H18.4674V113.271H17.8726V110.29H14.9263V109.695H17.8726V106.708H18.4674V109.695Z" fill="#9C4DF4"/>
<path d="M33.0673 109.695H36.0205V110.29H33.0673V113.271H32.4726V110.29H29.5263V109.695H32.4726V106.708H33.0673V109.695Z" fill="#9C4DF4"/>
<path d="M47.6673 109.695H50.6204V110.29H47.6673V113.271H47.0726V110.29H44.1263V109.695H47.0726V106.708H47.6673V109.695Z" fill="#9C4DF4"/>
<path d="M62.2673 109.695H65.2204V110.29H62.2673V113.271H61.6726V110.29H58.7263V109.695H61.6726V106.708H62.2673V109.695Z" fill="#9C4DF4"/>
<path d="M76.8673 109.695H79.8204V110.29H76.8673V113.271H76.2725V110.29H73.3262V109.695H76.2725V106.708H76.8673V109.695Z" fill="#9C4DF4"/>
<path d="M91.4672 109.695H94.4204V110.29H91.4672V113.271H90.8725V110.29H87.9262V109.695H90.8725V106.708H91.4672V109.695Z" fill="#9C4DF4"/>
<path d="M106.067 109.695H109.02V110.29H106.067V113.271H105.472V110.29H102.526V109.695H105.472V106.708H106.067V109.695Z" fill="#9C4DF4"/>
<path d="M120.667 109.695H123.62V110.29H120.667V113.271H120.072V110.29H117.126V109.695H120.072V106.708H120.667V109.695Z" fill="#9C4DF4"/>
<path d="M135.267 109.695H138.22V110.29H135.267V113.271H134.672V110.29H131.726V109.695H134.672V106.708H135.267V109.695Z" fill="#9C4DF4"/>
</svg>
